<?xml version="1.0" encoding="UTF-8"?><svg id="Layer_1" xmlns="http://www.w3.org/2000/svg" viewBox="0 0 144.15824 113.16772"><defs><style>.cls-1{fill:#2e58c8;}</style></defs><path class="cls-1" d="M52.86615,0c1.85606,3.6279,2.89358,5.65584,4.12651,8.06574-15.54188,10.54874-26.33929,24.30252-31.99801,42.88703,2.72335,.34909,4.67345,.74992,6.63628,.82714,17.98681,.70762,30.33364,13.18098,30.28065,30.65705-.04958,16.34903-12.84017,29.83249-29.11543,30.69262-16.0861,.85014-30.69605-12.61643-32.40317-29.53229C-2.52395,54.69289,11.08083,33.39672,31.77511,15.52041c6.31259-5.45299,13.45315-9.94744,21.09104-15.52041Z"/><path class="cls-1" d="M107.19685,51.31535c3.3562,.21363,5.68259,.38698,8.01173,.50588,15.35468,.7839,27.36693,12.61769,28.83661,28.42215,1.34539,14.46793-9.45712,28.34284-24.93236,32.02348-13.82443,3.28801-29.30723-4.9498-34.34028-18.89338-7.81976-21.66397-1.36757-40.96265,11.08269-58.82476,9.94992-14.27494,23.20128-24.92266,38.32342-33.55958,4.78185,4.29951,4.45282,7.44208-.45856,10.88832-10.8598,7.62011-18.30652,18.11084-23.75516,30.04749-1.24847,2.73508-1.74023,5.81558-2.76809,9.39041Z"/></svg>